<svg width="17" height="18" viewBox="0 0 17 18" fill="none" xmlns="http://www.w3.org/2000/svg">
<path fill-rule="evenodd" clip-rule="evenodd" d="M8.5 0C3.80375 0 0 3.92561 0 8.7723C0 12.654 2.43312 15.9327 5.81187 17.095C6.23687 17.1718 6.39625 16.9086 6.39625 16.6783C6.39625 16.47 6.38562 15.7792 6.38562 15.0445C4.25 15.4502 3.6975 14.5072 3.5275 14.0138C3.43187 13.7616 3.0175 12.983 2.65625 12.7747C2.35875 12.6102 1.93375 12.2045 2.64562 12.1935C3.315 12.1825 3.79312 12.8295 3.9525 13.0927C4.7175 14.4195 5.93937 14.0467 6.42812 13.8164C6.5025 13.2462 6.72563 12.8624 6.97 12.6431C5.07875 12.4238 3.1025 11.6672 3.1025 8.31176C3.1025 7.35777 3.43187 6.56826 3.97375 5.9542C3.88875 5.73489 3.59125 4.83573 4.05875 3.62954C4.05875 3.62954 4.77062 3.39927 6.39625 4.5287C7.07625 4.33133 7.79875 4.23264 8.52125 4.23264C9.24375 4.23264 9.96625 4.33133 10.6462 4.5287C12.2719 3.3883 12.9837 3.62954 12.9837 3.62954C13.4512 4.83573 13.1538 5.73489 13.0688 5.9542C13.6106 6.56826 13.94 7.34681 13.94 8.31176C13.94 11.6781 11.9531 12.4238 10.0619 12.6431C10.37 12.9172 10.6356 13.4436 10.6356 14.266C10.6356 15.4393 10.625 16.3823 10.625 16.6783C10.625 16.9086 10.7844 17.1828 11.2094 17.095C12.8968 16.5071 14.363 15.3879 15.4018 13.8949C16.4405 12.4019 16.9995 10.6103 17 8.7723C17 3.92561 13.1962 0 8.5 0Z" fill="#00AEEF"/>
</svg>
