<svg width="76" height="76" viewBox="0 0 76 76" fill="none" xmlns="http://www.w3.org/2000/svg">
<path d="M25.1928 37.9997C25.1928 45.0788 30.9201 50.806 37.9993 50.806C45.0785 50.806 50.8058 45.0788 50.8058 37.9997C50.8058 30.9206 45.0785 25.1934 37.9993 25.1934C30.9201 25.1934 25.1928 30.9114 25.1928 37.9997ZM73.4409 24.3347L52.0389 25.44C57.8484 32.2268 57.9398 42.0188 53.0528 49.5272L35.8801 75.9436C43.005 76.3272 50.349 74.7653 56.9989 70.9015C73.4409 61.4018 80.109 41.4798 73.4409 24.3347ZM20.4886 45.298L6.19317 17.1826C2.14427 23.3698 -0.00832747 30.6054 2.42102e-05 37.9997C2.42102e-05 56.999 13.9118 72.7375 32.0984 75.5234L41.8632 56.3962C33.0393 58.0586 24.5169 53.2174 20.4886 45.298ZM40.4473 19.2195L71.9063 20.8728C68.691 14.4971 63.6305 8.95255 56.9806 5.08873C50.9611 1.60856 44.3477 -0.0447511 37.8623 0.000920487C26.6726 0.0465921 15.7387 5.04306 8.44025 14.1134L20.1506 32.0989C23.0736 23.7045 31.5504 18.6989 40.4473 19.2195Z" fill="white"/>
</svg>
 