<svg width="16" height="16" viewBox="0 0 16 16" fill="none" xmlns="http://www.w3.org/2000/svg">
<path d="M15.7274 5.92946C16.2064 7.71724 16.0508 9.61581 15.2869 11.3017C14.5231 12.9875 13.1983 14.3564 11.5383 15.175C9.87834 15.9936 7.98589 16.2113 6.18339 15.791C4.3809 15.3707 2.7799 14.3385 1.65318 12.8701C0.526455 11.4017 -0.0562716 9.58811 0.00428599 7.73826C0.0648436 5.88841 0.764938 4.11679 1.98528 2.72525C3.20563 1.33371 4.87072 0.408363 6.69684 0.106869C8.52296 -0.194626 10.3971 0.14639 12 1.07181L11.6069 1.7527C10.1615 0.918225 8.47156 0.610724 6.82491 0.882588C5.17825 1.15445 3.67681 1.98886 2.5764 3.24364C1.47598 4.49842 0.844692 6.09594 0.790086 7.76399C0.73548 9.43204 1.26094 11.0674 2.27693 12.3915C3.29292 13.7155 4.73658 14.6464 6.36192 15.0253C7.98727 15.4043 9.69374 15.208 11.1906 14.4699C12.6874 13.7317 13.882 12.4974 14.5708 10.9772C15.2596 9.45701 15.3999 7.74503 14.968 6.13295L15.7274 5.92946Z" fill="#00AEEF"/>
<path fill-rule="evenodd" clip-rule="evenodd" d="M15.8536 2.35359L7.00004 11.2071L3.14648 7.35359L3.85359 6.64648L7.00004 9.79293L15.1465 1.64648L15.8536 2.35359Z" fill="#00AEEF"/>
</svg>
