<svg width="27" height="26" viewBox="0 0 27 26" fill="none" xmlns="http://www.w3.org/2000/svg">
<path d="M26.0288 9.52744C26.8216 12.4 26.564 15.4506 25.2998 18.1595C24.0356 20.8683 21.8431 23.0678 19.0959 24.3831C16.3486 25.6985 13.2166 26.0483 10.2335 25.373C7.25038 24.6977 4.60073 23.039 2.73601 20.6796C0.871282 18.3203 -0.0931294 15.4061 0.00709331 12.4338C0.107316 9.46148 1.26597 6.61484 3.28564 4.37892C5.30531 2.143 8.06103 0.656156 11.0833 0.171716C14.1055 -0.312724 17.2072 0.235218 19.86 1.72218L19.2094 2.81623C16.8173 1.4754 14.0204 0.981309 11.2952 1.41814C8.57001 1.85497 6.08511 3.19569 4.26393 5.21187C2.44275 7.22805 1.39796 9.79493 1.30759 12.4751C1.21722 15.1554 2.08685 17.7831 3.76831 19.9106C5.44977 22.0381 7.83903 23.5337 10.529 24.1427C13.2189 24.7516 16.0431 24.4362 18.5204 23.2501C20.9976 22.064 22.9747 20.0807 24.1146 17.6381C25.2546 15.1955 25.4869 12.4447 24.772 9.85441L26.0288 9.52744Z" fill="#00AEEF"/>
<path fill-rule="evenodd" clip-rule="evenodd" d="M26.2378 3.78168L11.5851 18.0075L5.20752 11.8157L6.37778 10.6795L11.5851 15.7352L25.0675 2.64551L26.2378 3.78168Z" fill="#00AEEF"/>
</svg>
