<svg width="19" height="16" viewBox="0 0 19 16" fill="none" xmlns="http://www.w3.org/2000/svg">
<path d="M19 1.85738C18.3013 2.16903 17.5507 2.3796 16.7616 2.47478C17.5758 1.98439 18.1849 1.21259 18.4753 0.303367C17.7104 0.760719 16.8732 1.08265 16.0001 1.25515C15.413 0.624164 14.6354 0.205936 13.7879 0.0653989C12.9405 -0.0751383 12.0707 0.0698778 11.3135 0.477933C10.5563 0.885987 9.95419 1.53425 9.60054 2.32208C9.2469 3.1099 9.16155 3.99321 9.35775 4.83486C7.80776 4.75653 6.29146 4.35101 4.90725 3.64463C3.52304 2.93826 2.30186 1.9468 1.32295 0.734617C0.988241 1.31579 0.795781 1.98962 0.795781 2.70725C0.795407 3.35328 0.953458 3.98941 1.25591 4.55921C1.55836 5.12901 1.99586 5.61485 2.5296 5.97363C1.91061 5.95381 1.30528 5.78545 0.763983 5.48258V5.53312C0.763921 6.4392 1.07529 7.3174 1.64527 8.0187C2.21524 8.72 3.00871 9.20121 3.89104 9.38068C3.31683 9.53711 2.71481 9.56015 2.13045 9.44806C2.37939 10.2277 2.86431 10.9095 3.51731 11.3979C4.17031 11.8863 4.95871 12.157 5.77213 12.172C4.3913 13.2631 2.68598 13.855 0.930503 13.8524C0.619538 13.8525 0.308837 13.8342 0 13.7976C1.78191 14.9509 3.85618 15.5629 5.97463 15.5605C13.1459 15.5605 17.0662 9.58199 17.0662 4.39688C17.0662 4.22842 17.062 4.05828 17.0545 3.88982C17.817 3.33473 18.4753 2.64736 18.9983 1.85991L19 1.85738Z" fill="#00AEEF"/>
</svg>
