<svg width="27" height="26" viewBox="0 0 27 26" fill="none" xmlns="http://www.w3.org/2000/svg">
  <path fill-rule="evenodd" clip-rule="evenodd" d="M13.3121 0.00732422C6.01623 0.00732422 0.106934 5.87967 0.106934 13.1299C0.106934 18.9366 3.8869 23.8412 9.13595 25.5799C9.7962 25.6947 10.0438 25.3011 10.0438 24.9566C10.0438 24.6449 10.0273 23.6115 10.0273 22.5125C6.7095 23.1194 5.85117 21.7088 5.58707 20.9706C5.43851 20.5933 4.79476 19.4287 4.23354 19.1171C3.77136 18.871 3.1111 18.2641 4.21703 18.2477C5.25694 18.2313 5.99973 19.1991 6.24732 19.5927C7.43579 21.5775 9.33402 21.0198 10.0933 20.6754C10.2089 19.8224 10.5555 19.2483 10.9351 18.9202C7.997 18.5921 4.92681 17.4603 4.92681 12.4409C4.92681 11.0139 5.43851 9.83284 6.28034 8.91426C6.14829 8.5862 5.68611 7.24114 6.41239 5.43678C6.41239 5.43678 7.51832 5.09232 10.0438 6.78185C11.1002 6.48659 12.2226 6.33896 13.3451 6.33896C14.4675 6.33896 15.59 6.48659 16.6464 6.78185C19.1719 5.07591 20.2778 5.43678 20.2778 5.43678C21.0041 7.24114 20.5419 8.5862 20.4098 8.91426C21.2517 9.83284 21.7634 10.9975 21.7634 12.4409C21.7634 17.4767 18.6767 18.5921 15.7385 18.9202C16.2172 19.3303 16.6299 20.1176 16.6299 21.3479C16.6299 23.103 16.6134 24.5137 16.6134 24.9566C16.6134 25.3011 16.861 25.7111 17.5212 25.5799C20.1426 24.7004 22.4205 23.0261 24.0343 20.7928C25.648 18.5594 26.5164 15.8794 26.5172 13.1299C26.5172 5.87967 20.6079 0.00732422 13.3121 0.00732422Z" fill="#00AEEF" />
</svg>
